<svg xmlns="http://www.w3.org/2000/svg" viewBox="0 0 566.93 566.93">
  <path fill="currentColor" d="M291.98,402.58c3.48-.09,6.85-1.28,10.1-2.57,43.53-17.19,77.91-52.14,104.54-90.63,13.51-19.54,25.51-40.5,31.66-63.45,3.83-14.3,5.28-29.77.34-43.73-8.66-24.48-37.25-39.1-62.77-34.34-8.78,1.64-17.09,5.19-25.1,9.13-10.69,5.25-21.01,11.24-30.88,17.91-2.19,1.48-4.72,3.07-7.3,2.48-1.68-.39-3.01-1.64-4.22-2.87-3.72-3.79-8.28-14.63-6.38-19.48,4.24-10.81,14.68-14.12,24.26-20.42.1-.07.2-.13.31-.19,7.71-4.44,14.92-7.84,22.74-12.06,10.21-5.52,16.88-5.52,29.33-6.65,14.75-1.34,20.64-.35,31.39,1.7,9.41,1.8,18.68,4.83,27.29,9.53,8.68,4.77,16.96,13.7,21.59,22.14,5.11,9.31,8.66,13.52,11.82,23.67,4.57,14.66,4.93,26.56,3.46,38.21-1.4,11.05-2.25,21.55-5.96,32.2-9.12,26.22-27.02,51.78-44.09,73.4-14.32,18.13-31.52,33.7-48.6,49.17-10.64,9.63-21.39,19.3-33.46,27.14-12.4,8.06-23.46,12.64-36.85,18.65-4.91,2.2-12.93,4.38-18.3,4.23-9.89-.28-19.27-8.32-27.39-13.28-9.6-5.86-19.16-11.8-28.54-18.01-18.41-12.18-36.21-25.42-52.04-40.84-21.87-21.31-39.63-46.39-57.81-70.92-9.56-12.9-14.63-22.18-20.72-40.46-3.49-10.48-5.37-17.94-7.47-28.78-1.58-8.16-.92-20.44.18-28.68,1.07-8,4.72-18.83,9.86-25.06,10.25-12.41,20.81-20.58,34.79-28.57,10.54-6.02,25.34-9.09,37.45-9.89,12.97-.86,25.7,3.56,36.32,10.82,5.53,3.78,10.13,8.72,14.89,13.43,7.09,7,11.79,21.35,11.79,21.35,0,0,9.86-3.81,16.51-1.38,5.52,2.02,12.8,8.06,17.18,11.88,23.57,20.5,26.84,37.59,26.84,37.59,0,0,16.58-4.12,30.77,10,9.42,9.37,17.33,20.45,21.58,33.06,6.91,20.46,5.02,43.73-5.11,62.8-1.24,2.33-2.7,4.72-5.02,5.98-2.32,1.27-5.71.94-7.03-1.35-.87-1.51-.64-3.38-.4-5.11,3.44-25.28,1.53-53.36-15.18-72.63-1.29-1.49-2.86-3.01-4.83-3.13-3.91-.23-5.71,4.68-6.47,8.53-2.8,14.21-8.4,28.56-19.43,37.95-1.12.95-2.35,1.87-3.8,2.09-2.85.42-5.43-2.16-6.11-4.95-.69-2.8,0-5.72.59-8.54,6.06-29.02.41-62.07-21.13-82.44-1.85-1.75-4.1-3.5-6.64-3.32-5.7.41-6.14,8.46-5.91,14.17.51,13.21-5.25,26.52-15.24,35.18-1.01.88-2.13,1.74-3.45,1.94-4.79.73-6.12-6.34-5.51-11.14,2.95-23.15,1.53-49.32-14.9-65.89-9.03-9.11-22.03-14.15-34.84-13.5-12.81.65-25.24,6.97-33.3,16.94-11.01,13.61-13.33,32.72-9.81,49.87,3.53,17.15,12.24,32.75,21.52,47.6,32.28,51.68,75.33,99.86,132.41,121.2,3.23,1.21,6.57,2.34,10.02,2.35.15,0,.31,0,.46,0Z"/>
  <path fill="currentColor" d="M319.3,355.94c.02,7.33-.27,14.51-4.74,19.88-5.4,6.49-14.82,9.98-23.68,10.01-16.19.05-30.8-13.98-30.86-30.17-.03-10.12,5.28-20.06,13.53-25.36,4.95-3.18,12.17-5.01,18.25-5.03,7.44-.03,13.11,4.68,18.29,9.23,6.09,5.35,9.17,12.69,9.2,21.44Z"/>
</svg>
