<svg xmlns="http://www.w3.org/2000/svg" viewBox="83.00 174.18 400.93 218.57">
  <path fill="currentColor" d="M286.15,270.97c1.18-.03,2.33-.43,3.44-.86,14.84-5.8,26.58-17.66,35.69-30.73,4.62-6.63,8.73-13.76,10.85-21.56,1.32-4.86,1.83-10.13.17-14.88-2.92-8.34-12.63-13.35-21.33-11.76-2.99.55-5.82,1.75-8.56,3.08-3.64,1.78-7.17,3.8-10.53,6.06-.75.5-1.61,1.04-2.49.84-.57-.13-1.02-.56-1.43-.98-1.26-1.29-2.8-4.99-2.15-6.64,1.46-3.68,5.01-4.79,8.28-6.92.03-.02.07-.04.11-.06,2.63-1.5,5.09-2.65,7.75-4.08,3.48-1.87,5.75-1.86,9.99-2.23,5.02-.44,7.03-.1,10.68.61,3.2.62,6.35,1.66,9.28,3.28,2.95,1.63,5.76,4.68,7.32,7.56,1.73,3.18,2.93,4.61,4,8.07,1.54,5,1.65,9.05,1.13,13.01-.49,3.76-.79,7.33-2.07,10.95-3.13,8.91-9.25,17.59-15.09,24.93-4.9,6.16-10.77,11.44-16.6,16.68-3.63,3.27-7.3,6.54-11.42,9.2-4.23,2.73-8,4.28-12.56,6.31-1.67.74-4.4,1.48-6.23,1.42-3.36-.11-6.55-2.85-9.31-4.55-3.26-2.01-6.51-4.04-9.69-6.16-6.25-4.17-12.29-8.69-17.67-13.96-7.42-7.28-13.44-15.84-19.6-24.21-3.24-4.4-4.95-7.57-7.01-13.79-1.18-3.57-1.81-6.11-2.51-9.8-.53-2.78-.29-6.96.09-9.76.37-2.72,1.63-6.41,3.38-8.52,3.5-4.21,7.11-6.98,11.87-9.68,3.59-2.04,8.64-3.06,12.76-3.32,4.41-.28,8.74,1.24,12.35,3.73,1.88,1.29,3.44,2.98,5.05,4.59,2.4,2.39,3.99,7.28,3.99,7.28,0,0,3.36-1.29,5.62-.45,1.88.69,4.35,2.76,5.83,4.06,8,7.01,9.09,12.83,9.09,12.83,0,0,5.65-1.38,10.46,3.44,3.2,3.2,5.87,6.98,7.31,11.28,2.33,6.97,1.66,14.89-1.81,21.37-.42.79-.93,1.6-1.72,2.03s-1.94.31-2.39-.47c-.29-.52-.21-1.15-.13-1.74,1.2-8.6.58-18.16-5.08-24.74-.44-.51-.97-1.03-1.64-1.07-1.33-.08-1.95,1.59-2.21,2.9-.97,4.83-2.89,9.71-6.66,12.89-.38.32-.8.64-1.3.71-.97.14-1.85-.74-2.08-1.69-.23-.95,0-1.95.21-2.91,2.1-9.87.21-21.13-7.1-28.08-.63-.6-1.39-1.2-2.26-1.14-1.94.13-2.1,2.87-2.03,4.82.16,4.5-1.82,9.02-5.23,11.96-.34.3-.73.59-1.18.66-1.63.24-2.08-2.17-1.86-3.8,1.03-7.88.58-16.78-5-22.44-3.06-3.11-7.48-4.84-11.84-4.63s-8.6,2.34-11.36,5.73c-3.76,4.62-4.58,11.12-3.4,16.96,1.18,5.84,4.13,11.16,7.27,16.23,10.93,17.63,25.53,34.08,44.93,41.4,1.1.41,2.23.8,3.41.81.05,0,.1,0,.16,0Z"/>
  <path fill="currentColor" d="M295.5,255.12c0,2.5-.11,4.94-1.64,6.76-1.84,2.2-5.06,3.38-8.07,3.38-5.51,0-10.47-4.79-10.47-10.31,0-3.44,1.82-6.82,4.63-8.62,1.69-1.08,4.15-1.69,6.22-1.69,2.53,0,4.46,1.61,6.22,3.16,2.07,1.83,3.11,4.33,3.11,7.31Z"/>
  <g>
    <path fill="currentColor" d="M129.15,385.34c-1.17,0-2.22-.11-3.14-.32-.92-.21-1.68-.5-2.28-.86-.6-.36-1.09-.8-1.47-1.31-.39-.51-.66-1.04-.82-1.6s-.24-1.16-.24-1.81v-.41c0-.64.08-1.25.24-1.8s.43-1.09.82-1.6c.39-.51.88-.95,1.47-1.31.6-.36,1.36-.65,2.28-.86.92-.21,1.97-.32,3.14-.32.96,0,1.86.08,2.7.24.83.16,1.55.38,2.16.66s1.14.61,1.58.99c.45.38.79.79,1.02,1.23s.37.9.4,1.37h-2.18c-.12-.71-.7-1.31-1.75-1.8-1.05-.49-2.36-.74-3.93-.74-2.04,0-3.53.35-4.49,1.05-.95.7-1.43,1.66-1.43,2.9v.41c0,1.23.48,2.2,1.43,2.9.95.7,2.45,1.05,4.49,1.05,3.28,0,5.17-.88,5.67-2.65h2.18c-.08.52-.24,1-.46,1.44-.22.44-.54.86-.95,1.25-.42.39-.91.73-1.49,1.01-.58.28-1.29.5-2.14.66s-1.78.24-2.81.24Z"/>
    <path fill="currentColor" d="M146.73,375.21c.8,0,1.52.05,2.17.15.65.1,1.18.23,1.59.39.41.16.77.35,1.08.56.31.22.54.43.69.63.15.2.27.41.36.64s.14.4.16.53c.02.13.03.24.03.36v4.59c0,.76.06,1.46.19,2.1h-2c-.09-.39-.13-.83-.13-1.31-.95,1-2.85,1.5-5.7,1.5-.58,0-1.11-.03-1.58-.1-.48-.06-.88-.15-1.2-.25s-.61-.24-.86-.39c-.25-.15-.44-.31-.58-.46-.14-.15-.26-.32-.34-.5-.09-.18-.14-.35-.17-.5-.03-.15-.04-.3-.04-.46v-.3c0-.47.08-.86.23-1.2.15-.33.36-.61.62-.83.26-.22.62-.4,1.09-.55.46-.14.95-.26,1.47-.34.52-.08,1.16-.15,1.93-.21,1.27-.1,2.28-.19,3.03-.27.75-.09,1.28-.17,1.6-.24.32-.07.47-.15.47-.23,0-.11-.01-.21-.04-.31-.03-.1-.12-.23-.28-.39-.16-.16-.37-.3-.64-.42-.27-.11-.67-.22-1.22-.3-.54-.09-1.18-.13-1.92-.13-.8,0-1.46.04-1.99.12s-.94.19-1.23.35-.49.34-.6.54c-.11.2-.17.45-.17.75h-2c0-.3.04-.59.12-.87.08-.28.25-.59.5-.92.26-.34.59-.62,1.01-.87.42-.24,1-.45,1.75-.61.75-.17,1.61-.25,2.6-.25ZM145.18,383.58c1.98,0,3.42-.24,4.32-.72.9-.48,1.35-1.18,1.35-2.1v-.32c-1.28.24-2.45.38-3.53.44-.2.01-.86.06-1.98.15-.53.04-.98.1-1.34.17-.37.07-.65.14-.86.21s-.37.17-.48.28c-.11.12-.18.22-.21.32-.03.1-.04.22-.04.37v.1c0,.19.03.34.09.46s.18.23.37.33c.19.11.47.18.85.24.38.05.87.08,1.47.08Z"/>
    <path fill="currentColor" d="M157.03,385.15v-12.94h1.96v12.94h-1.96Z"/>
    <path fill="currentColor" d="M162.38,385.15v-9.8h1.96v9.8h-1.96ZM163.39,374.37c-.63,0-.95-.25-.95-.75v-.08c0-.5.32-.75.95-.75s.96.25.96.75v.06c0,.51-.32.77-.96.77Z"/>
    <path fill="currentColor" d="M178.15,372.2h1.95v12.94h-1.95v-1.49c-.55.56-1.24.98-2.09,1.26s-1.77.43-2.78.43c-.92,0-1.76-.1-2.52-.31-.76-.2-1.43-.5-1.99-.9-.56-.39-1-.91-1.32-1.53s-.47-1.34-.47-2.13v-.56c0-.8.16-1.5.47-2.12.32-.62.76-1.11,1.33-1.49.57-.38,1.22-.66,1.95-.85.73-.19,1.54-.28,2.42-.28,1.07,0,2.03.14,2.89.42s1.56.69,2.1,1.23v-4.61ZM173.29,383.58c3.24,0,4.86-1.03,4.86-3.09v-.59c0-1.97-1.66-2.96-4.99-2.96-.64,0-1.2.05-1.68.14-.48.1-.92.25-1.3.47s-.68.53-.89.92c-.2.4-.31.87-.31,1.44v.56c0,.57.1,1.07.31,1.47.2.41.5.73.9.97.39.24.84.41,1.34.51s1.09.16,1.75.16Z"/>
    <path fill="currentColor" d="M190.3,375.21c.8,0,1.52.05,2.17.15.65.1,1.18.23,1.59.39.41.16.77.35,1.08.56.31.22.54.43.69.63.15.2.27.41.36.64s.14.4.16.53c.02.13.03.24.03.36v4.59c0,.76.06,1.46.19,2.1h-2c-.09-.39-.13-.83-.13-1.31-.95,1-2.85,1.5-5.7,1.5-.58,0-1.11-.03-1.58-.1-.48-.06-.88-.15-1.2-.25s-.61-.24-.86-.39c-.25-.15-.44-.31-.58-.46-.14-.15-.26-.32-.34-.5-.09-.18-.14-.35-.17-.5-.03-.15-.04-.3-.04-.46v-.3c0-.47.08-.86.23-1.2.15-.33.36-.61.62-.83.26-.22.62-.4,1.09-.55.46-.14.95-.26,1.47-.34.52-.08,1.16-.15,1.93-.21,1.27-.1,2.28-.19,3.03-.27.75-.09,1.28-.17,1.6-.24.32-.07.47-.15.47-.23,0-.11-.01-.21-.04-.31-.03-.1-.12-.23-.28-.39-.16-.16-.37-.3-.64-.42-.27-.11-.67-.22-1.22-.3-.54-.09-1.18-.13-1.92-.13-.8,0-1.46.04-1.99.12s-.94.19-1.23.35-.49.34-.6.54c-.11.2-.17.45-.17.75h-2c0-.3.04-.59.12-.87.08-.28.25-.59.5-.92.26-.34.59-.62,1.01-.87.42-.24,1-.45,1.75-.61.75-.17,1.61-.25,2.6-.25ZM188.75,383.58c1.98,0,3.42-.24,4.32-.72.9-.48,1.35-1.18,1.35-2.1v-.32c-1.28.24-2.45.38-3.53.44-.2.01-.86.06-1.98.15-.53.04-.98.1-1.34.17-.37.07-.65.14-.86.21s-.37.17-.48.28c-.11.12-.18.22-.21.32-.03.1-.04.22-.04.37v.1c0,.19.03.34.09.46s.18.23.37.33c.19.11.47.18.85.24.38.05.87.08,1.47.08Z"/>
    <path fill="currentColor" d="M211.03,372.2h1.95v12.94h-1.95v-1.49c-.55.56-1.24.98-2.09,1.26s-1.77.43-2.78.43c-.92,0-1.76-.1-2.52-.31-.76-.2-1.43-.5-1.99-.9-.56-.39-1-.91-1.32-1.53s-.47-1.34-.47-2.13v-.56c0-.8.16-1.5.47-2.12.32-.62.76-1.11,1.33-1.49.57-.38,1.22-.66,1.95-.85.73-.19,1.54-.28,2.42-.28,1.07,0,2.03.14,2.89.42s1.56.69,2.1,1.23v-4.61ZM206.17,383.58c3.24,0,4.86-1.03,4.86-3.09v-.59c0-1.97-1.66-2.96-4.99-2.96-.64,0-1.2.05-1.68.14-.48.1-.92.25-1.3.47s-.68.53-.89.92c-.2.4-.31.87-.31,1.44v.56c0,.57.1,1.07.31,1.47.2.41.5.73.9.97.39.24.84.41,1.34.51s1.09.16,1.75.16Z"/>
    <path fill="currentColor" d="M217.83,386.73l-.56-.57c.21-.2.38-.4.5-.6.12-.2.16-.34.12-.42-.35,0-.61-.08-.8-.23s-.28-.35-.28-.6v-.13c0-.55.36-.82,1.08-.82s1.1.27,1.1.82v.12c0,.85-.39,1.66-1.16,2.43Z"/>
    <path fill="currentColor" d="M238.72,375.17c.95,0,1.8.09,2.54.28.74.19,1.39.48,1.93.87.55.39.96.91,1.25,1.55.29.64.43,1.39.43,2.24v5.04h-2v-4.62c0-1.24-.38-2.16-1.13-2.74-.75-.58-1.77-.87-3.06-.87-.81,0-1.58.15-2.31.44-.73.29-1.34.67-1.84,1.13-.5.46-.89.98-1.18,1.54-.29.56-.44,1.12-.44,1.67v3.45h-1.96v-12.94h1.96v5.72c.63-.87,1.46-1.54,2.49-2.03,1.03-.49,2.13-.73,3.31-.73Z"/>
    <path fill="currentColor" d="M254.87,385.34c-2.2,0-3.87-.4-5.02-1.19s-1.73-1.98-1.73-3.57v-.65c0-3.17,2.25-4.76,6.75-4.76s6.74,1.57,6.74,4.7v.63c0,1.59-.58,2.79-1.73,3.61s-2.82,1.23-5.01,1.23ZM254.87,383.54c1.66,0,2.86-.23,3.61-.68.75-.46,1.12-1.24,1.12-2.35v-.63c0-1.1-.36-1.86-1.09-2.28-.73-.41-1.94-.62-3.65-.62s-2.83.22-3.6.67c-.77.45-1.15,1.21-1.15,2.29v.65c0,1.09.38,1.85,1.13,2.29s1.96.66,3.61.66Z"/>
    <path fill="currentColor" d="M271.33,375.15c1.33-.07,2.29-.04,2.86.08l-.15,1.8c-.89-.08-1.52-.12-1.89-.12-3.41,0-5.11,1.43-5.11,4.29v3.94h-1.96v-9.8h1.96v1.96c.9-1.19,2.33-1.91,4.29-2.15Z"/>
    <path fill="currentColor" d="M285.32,375.17c.95,0,1.8.09,2.54.28.75.19,1.39.48,1.93.87.55.39.96.91,1.25,1.55.29.64.43,1.39.43,2.24v5.04h-2v-4.62c0-1.24-.38-2.16-1.13-2.74-.75-.58-1.77-.87-3.06-.87-.81,0-1.58.15-2.31.44-.73.29-1.34.67-1.84,1.13-.5.46-.89.98-1.18,1.54-.29.56-.44,1.12-.44,1.67v3.45h-1.96v-9.8h1.96v2.59c.63-.87,1.46-1.54,2.49-2.03,1.03-.49,2.13-.73,3.31-.73Z"/>
    <path fill="currentColor" d="M301.47,385.34c-2.2,0-3.87-.4-5.02-1.19-1.15-.79-1.73-1.98-1.73-3.57v-.65c0-3.17,2.25-4.76,6.75-4.76s6.74,1.57,6.74,4.7v.63c0,1.59-.58,2.79-1.73,3.61s-2.82,1.23-5.01,1.23ZM301.47,383.54c1.66,0,2.86-.23,3.61-.68.75-.46,1.13-1.24,1.13-2.35v-.63c0-1.1-.36-1.86-1.09-2.28-.73-.41-1.94-.62-3.65-.62s-2.82.22-3.59.67c-.77.45-1.15,1.21-1.15,2.29v.65c0,1.09.38,1.85,1.14,2.29.76.44,1.96.66,3.61.66Z"/>
    <path fill="currentColor" d="M328.63,375.34h2.26l-5.86,10.7c-.52.94-1.06,1.58-1.62,1.92-.56.34-1.27.51-2.13.51-.92,0-1.64-.12-2.17-.37l.63-1.76c.42.2.93.3,1.54.3.74,0,1.28-.32,1.63-.95l.3-.55-5.45-9.8h2.25l4.3,7.82,4.33-7.82Z"/>
    <path fill="currentColor" d="M353.88,381.33c-.13,1.29-.77,2.29-1.93,2.98-1.16.69-2.75,1.03-4.77,1.03-2.19,0-3.86-.4-5.02-1.19-1.16-.79-1.73-1.97-1.73-3.53v-.73c0-1.55.58-2.72,1.74-3.52,1.16-.8,2.83-1.2,5.01-1.2,4.03,0,6.25,1.21,6.66,3.62h-2c-.19-.7-.66-1.18-1.4-1.46-.74-.28-1.83-.42-3.26-.42-1.61,0-2.81.23-3.58.69s-1.16,1.22-1.16,2.29v.73c0,1.07.38,1.83,1.14,2.28.76.45,1.96.67,3.6.67,1.43,0,2.54-.18,3.33-.53.79-.35,1.24-.93,1.37-1.72h2Z"/>
    <path fill="currentColor" d="M363.38,385.34c-2.2,0-3.87-.4-5.02-1.19-1.15-.79-1.73-1.98-1.73-3.57v-.65c0-3.17,2.25-4.76,6.75-4.76s6.74,1.57,6.74,4.7v.63c0,1.59-.58,2.79-1.73,3.61s-2.82,1.23-5.01,1.23ZM363.38,383.54c1.66,0,2.86-.23,3.61-.68.75-.46,1.13-1.24,1.13-2.35v-.63c0-1.1-.36-1.86-1.09-2.28-.73-.41-1.94-.62-3.65-.62s-2.82.22-3.59.67c-.77.45-1.15,1.21-1.15,2.29v.65c0,1.09.38,1.85,1.14,2.29.76.44,1.96.66,3.61.66Z"/>
    <path fill="currentColor" d="M379.84,375.15c1.33-.07,2.29-.04,2.86.08l-.15,1.8c-.89-.08-1.52-.12-1.89-.12-3.41,0-5.11,1.43-5.11,4.29v3.94h-1.96v-9.8h1.96v1.96c.9-1.19,2.33-1.91,4.29-2.15Z"/>
    <path fill="currentColor" d="M391.68,375.21c.8,0,1.52.05,2.17.15.65.1,1.18.23,1.59.39.41.16.77.35,1.08.56.31.22.54.43.69.63.15.2.27.41.36.64s.14.4.16.53c.02.13.03.24.03.36v4.59c0,.76.07,1.46.19,2.1h-2c-.09-.39-.13-.83-.13-1.31-.95,1-2.85,1.5-5.71,1.5-.58,0-1.11-.03-1.58-.1-.48-.06-.88-.15-1.2-.25s-.61-.24-.86-.39-.44-.31-.58-.46c-.14-.15-.26-.32-.35-.5-.09-.18-.14-.35-.17-.5-.03-.15-.04-.3-.04-.46v-.3c0-.47.07-.86.22-1.2.15-.33.36-.61.62-.83.26-.22.62-.4,1.09-.55.46-.14.95-.26,1.47-.34.52-.08,1.16-.15,1.93-.21,1.27-.1,2.28-.19,3.03-.27.75-.09,1.28-.17,1.6-.24.32-.07.47-.15.47-.23,0-.11-.01-.21-.04-.31-.03-.1-.12-.23-.28-.39-.16-.16-.37-.3-.64-.42-.27-.11-.67-.22-1.22-.3-.54-.09-1.18-.13-1.92-.13-.8,0-1.46.04-1.99.12-.53.08-.94.19-1.22.35s-.49.34-.6.54c-.11.2-.17.45-.17.75h-2c0-.3.04-.59.12-.87.08-.28.25-.59.5-.92.25-.34.59-.62,1.01-.87.42-.24,1-.45,1.75-.61s1.61-.25,2.6-.25ZM390.13,383.58c1.98,0,3.42-.24,4.32-.72.9-.48,1.35-1.18,1.35-2.1v-.32c-1.28.24-2.46.38-3.53.44-.2.01-.86.06-1.98.15-.53.04-.98.1-1.35.17-.37.07-.65.14-.86.21-.21.07-.37.17-.48.28-.11.12-.18.22-.21.32-.03.1-.04.22-.04.37v.1c0,.19.03.34.09.46.06.12.18.23.37.33s.47.18.85.24c.38.05.87.08,1.47.08Z"/>
    <path fill="currentColor" d="M411.92,375.34v1.14l-7.54,6.98h7.86v1.68h-11.07v-1.18l7.39-6.94h-7.52v-1.68h10.89Z"/>
    <path fill="currentColor" d="M421.31,385.34c-2.2,0-3.87-.4-5.02-1.19-1.15-.79-1.73-1.98-1.73-3.57v-.65c0-3.17,2.25-4.76,6.75-4.76s6.74,1.57,6.74,4.7v.63c0,1.59-.58,2.79-1.73,3.61s-2.82,1.23-5.01,1.23ZM421.31,383.54c1.66,0,2.86-.23,3.61-.68.75-.46,1.13-1.24,1.13-2.35v-.63c0-1.1-.36-1.86-1.09-2.28-.73-.41-1.94-.62-3.65-.62s-2.82.22-3.59.67c-.77.45-1.15,1.21-1.15,2.29v.65c0,1.09.38,1.85,1.14,2.29.76.44,1.96.66,3.61.66ZM420.86,374.24l1.65-2h2.36l-1.94,2h-2.06Z"/>
    <path fill="currentColor" d="M439.28,375.17c.95,0,1.8.09,2.54.28.74.19,1.39.48,1.93.87.55.39.96.91,1.25,1.55s.43,1.39.43,2.24v5.04h-2v-4.62c0-1.24-.38-2.16-1.13-2.74-.75-.58-1.77-.87-3.06-.87-.81,0-1.58.15-2.31.44s-1.34.67-1.84,1.13c-.49.46-.89.98-1.18,1.54-.29.56-.44,1.12-.44,1.67v3.45h-1.96v-9.8h1.96v2.59c.63-.87,1.46-1.54,2.49-2.03,1.03-.49,2.13-.73,3.31-.73Z"/>
  </g>
  <g>
    <path fill="currentColor" d="M470.56,300.24l-33.72.05c-2.61,2.55-3.89,6.53-4.4,10.49-1.19-3.14-3.46-5.86-6.94-7.92-23.61-13.97-53.97-2.31-56.59,12.87-2.12-3.81-5.34-6.98-9.41-8.91-7.36-3.49-12.05-.36-15.16,5.14-1.67-15.21-16.64-17.33-31.94-15.94-6.41.58-9.26,5.4-9.07,11.47l1.39,44.98,6.82.4c1.49.04,3.47-3.27,3.51-4.76l.67-26.63c.12-4.83,4.06-8.67,8.89-8.7,4.04-.02,8.19.53,9.92,1.42,2.92,1.51,5.27,4.86,5.64,9.01l1,11.13c.06.68,2.06,3.02,2.37,2.47,3.04-5.35.57-13.23,5.66-18.71,1.81-1.95,5.98-1.84,7.91-.79,1.94,1.05,5.01,4.6,5.11,7.13l1.07,25.85c.12,2.92,7.62,3.51,8.72.96l-.23-23.64c7.33,11.21,26.46,18.33,43.55,13.39,8.86-2.56,13.95-8.78,16.62-16.59l-.66,32.03c1.16.93,2.82,1.71,3.64,1.24.82-.47,2.23-2.84,2.34-3.97l2.5-24.51c5.44-1.18,9.16-1.37,14.63-.78l4.2,14.74c1.38,4.82,2.48,9.72,5.81,13.88.93,1.16,4.78,1.45,5.54.44.63-.84,1.52-3.63,1.2-4.61l-7.35-23.06,7.69-2.23c3.05-.88,7.24-2.34,7.84-5.9,1.9-11.25-1.4-21.46-8.8-21.45ZM420.37,322.23c-1.98,9-22.08,12.84-31.78,4.88-5.66-2.91-8.45-9.88-5.29-15.61,10-7.21,23.54-7.05,33.57.12,3.14,2.25,4.21,7.32,3.49,10.61ZM468.25,315.91l-26.63,1.13c-1.11.05-2.6-2.98-2.42-3.99.18-1.01,1.65-3.55,2.79-3.63,10.23-.72,24.85-1.48,29.72,2.55.83.69-1.95,3.88-3.47,3.94Z"/>
    <path fill="currentColor" d="M275.18,298.82c-7.8-1.71-13.13,4.05-16.86,9.92-4.64,8.59-7,17.6-8.58,27.1-.27-4.3-.69-8.52-1.27-12.54-.93-1.05-4.1-2.64-5.44-2.61l-22.51.35c-1.99,1.3-2.31,5.84-1.2,7.61,3.36,5.37,10.9.69,16.88,4.11.9.51,2.17,3.01,2.06,4.02-.5,4.54-14.66,6.76-23.15.54-5.34-3.92-7.04-11.38-5.25-17.75,2.5-8.89,10.51-14.99,19.88-15.32l15.46-.55c1.6-.06,1.83-5.72.27-5.96-10.91-1.67-21.64-.48-31.14,4.39-13.92,7.14-19.64,22.17-16.89,37.15.11.6.24,1.19.39,1.77l-8.76-.31c-2.47-.04-4.52-1.93-4.77-4.39l-1.87-24.43c-.17-1.63.98-3.11,2.6-3.36l7.57-.43c1.75-.1,3.11-1.54,3.14-3.29.03-1.83-.08-2.77-.36-4.51-1.82-1.26-6.33-1.22-8.71-1.36-9.1-.54-20.94-.67-29.56,1.58-.96.25-1.7.94-2.06,1.82-1.19-3.5-3.92-5.97-8.38-6.37-15.3-1.39-30.27.72-31.94,15.94-2.35-4.16-5.61-6.97-10.25-6.57-9.94.85-17.06,8.19-17.16,18.16l-.26,34.06c1.1,2.55,8.59,1.96,8.72-.96l1.07-32.21c.1-2.53,3.17-6.08,5.11-7.13,1.93-1.05,6.1-1.16,7.91.79,5.08,5.48,2.61,13.37,5.66,18.71.31.55,2.31-1.79,2.37-2.47l1-11.13c.37-4.15,2.72-7.5,5.64-9.01,3.27-1.69,7.35-2.13,10.8.12l.86,38.95c.04,1.49,2.02,4.8,3.51,4.76l14.66-.4,1.33-48.15c3.18,1.67,15.19-1.27,15.56,2.17l2.1,25.64c.22,2.03-2.78,4.11-4.37,4.4-2.49.45-4.99.91-7.48,1.36-.71.13-1.32.56-1.68,1.18-.72,1.23-1.58,3.16-1.78,5.64-.2,2.48.35,4.54.92,5.96.44,1.1,1.37,1.91,2.52,2.2,1.95.49,4.55.94,6.28.8l31.19-2.18c1.61-2.21,2.38-5.25,2.24-8.2,3.65,5.18,9.46,8.3,16.71,8.2l13.94-.2c7.54-.11,13.86-4.77,16.57-11.27-.15,1.23-.31,2.46-.45,3.71.5,1.23,2.04,3.27,3.1,3.39,1.06.12,2.13-2.49,2.37-3.63l3.54-16.88c7.93-2.49,15.07-3.03,23.16-.45,3.22,1.03,4.66,6.48,5.8,10.02l3.44,12.33,11.76-.81c-1.77-12.45-3.13-27.39-7.26-39.19-2.55-7.27-11.54-13.3-18.67-14.86ZM284.92,321.9c-.15.72-2.68.58-3.63.63l-23.08,1.18c1.28-5.63,3.22-11.28,7.63-15.03,3.23-2.75,9.22-3.36,12.78-1.5,4.83,2.53,7.32,9.67,6.3,14.72Z"/>
  </g>
</svg>
