<svg xmlns="http://www.w3.org/2000/svg" viewBox="14.07 19.47 282.43 8.64">
  <path fill="currentColor" d="M293.7,25.29c-3.36,0-5.06-.58-6.71-1.14-1.66-.57-3.23-1.1-6.47-1.1s-4.8.53-6.47,1.1c-1.65.56-3.35,1.14-6.71,1.14s-5.06-.58-6.71-1.14c-1.66-.57-3.23-1.1-6.47-1.1s-4.8.53-6.47,1.1c-1.65.56-3.35,1.14-6.71,1.14s-5.06-.58-6.71-1.14c-1.66-.57-3.23-1.1-6.47-1.1s-4.8.53-6.47,1.1c-1.65.56-3.35,1.14-6.71,1.14s-5.06-.58-6.71-1.14c-1.66-.57-3.23-1.1-6.46-1.1s-4.8.53-6.46,1.1c-1.65.56-3.35,1.14-6.71,1.14s-5.06-.58-6.71-1.14c-1.66-.57-3.23-1.1-6.47-1.1s-4.8.53-6.47,1.1c-1.65.56-3.35,1.14-6.71,1.14s-5.06-.58-6.71-1.14c-1.66-.57-3.23-1.1-6.46-1.1s-4.8.53-6.46,1.1c-1.65.56-3.35,1.14-6.71,1.14s-5.06-.58-6.71-1.14c-1.66-.57-3.23-1.1-6.46-1.1s-4.8.53-6.46,1.1c-1.65.56-3.35,1.14-6.71,1.14s-5.06-.58-6.71-1.14c-1.66-.57-3.23-1.1-6.46-1.1s-4.8.53-6.47,1.1c-1.65.56-3.35,1.14-6.71,1.14s-5.06-.58-6.71-1.14c-1.66-.57-3.23-1.1-6.46-1.1s-4.8.53-6.46,1.1c-1.65.56-3.35,1.14-6.71,1.14s-5.06-.58-6.7-1.14c-1.66-.57-3.23-1.1-6.46-1.1s-4.8.53-6.46,1.1c-1.65.56-3.35,1.14-6.7,1.14s-5.06-.58-6.71-1.14c-1.66-.57-3.23-1.1-6.46-1.1v-.75c3.35,0,5.06.58,6.7,1.14,1.66.57,3.23,1.1,6.46,1.1s4.8-.53,6.46-1.1c1.65-.56,3.35-1.14,6.7-1.14s5.06.58,6.7,1.14c1.66.57,3.23,1.1,6.46,1.1s4.8-.53,6.46-1.1c1.65-.56,3.35-1.14,6.71-1.14s5.06.58,6.71,1.14c1.66.57,3.23,1.1,6.46,1.1s4.8-.53,6.47-1.1c1.65-.56,3.35-1.14,6.71-1.14s5.06.58,6.71,1.14c1.66.57,3.23,1.1,6.46,1.1s4.8-.53,6.47-1.1c1.65-.56,3.35-1.14,6.71-1.14s5.06.58,6.71,1.14c1.66.57,3.23,1.1,6.46,1.1s4.8-.53,6.46-1.1c1.65-.56,3.35-1.14,6.71-1.14s5.06.58,6.71,1.14c1.66.57,3.23,1.1,6.47,1.1s4.8-.53,6.47-1.1c1.65-.56,3.35-1.14,6.71-1.14s5.06.58,6.71,1.14c1.66.57,3.23,1.1,6.47,1.1s4.8-.53,6.46-1.1c1.65-.56,3.35-1.14,6.71-1.14s5.06.58,6.71,1.14c1.66.57,3.23,1.1,6.46,1.1s4.8-.53,6.47-1.1c1.65-.56,3.35-1.14,6.71-1.14s5.06.58,6.71,1.14c1.66.57,3.23,1.1,6.47,1.1s4.8-.53,6.47-1.1c1.65-.56,3.35-1.14,6.71-1.14s5.06.58,6.71,1.14c1.66.57,3.23,1.1,6.47,1.1s4.8-.53,6.47-1.1c1.65-.56,3.35-1.14,6.71-1.14s5.06.58,6.71,1.14c1.66.57,3.23,1.1,6.47,1.1v.75Z"/>
</svg>
